<svg width="38" height="38" viewBox="0 0 38 38" fill="none" xmlns="http://www.w3.org/2000/svg">
<rect width="10.001" height="10.0223" rx="2" transform="matrix(0.978049 -0.208374 0.20745 0.978246 2 4.08395)" fill="#2C5C89"/>
<rect width="10.001" height="10.0223" rx="2" transform="matrix(0.978049 -0.208374 0.20745 0.978246 2 4.08395)" fill="url(#paint0_radial)"/>
<rect width="10.001" height="10.0223" rx="2" transform="matrix(0.978049 -0.208374 0.20745 0.978246 12.9999 4.08395)" fill="#BF4216"/>
<rect width="10.001" height="10.0223" rx="2" transform="matrix(0.978049 -0.208374 0.20745 0.978246 12.9999 4.08395)" fill="url(#paint1_radial)"/>
<rect width="10.001" height="10.0223" rx="2" transform="matrix(0.978049 -0.208374 0.20745 0.978246 2 15.1096)" fill="#E4B81B"/>
<rect width="10.001" height="10.0223" rx="2" transform="matrix(0.978049 -0.208374 0.20745 0.978246 2 15.1096)" fill="url(#paint2_radial)"/>
<rect width="10.001" height="10.0223" rx="2" transform="matrix(0.978049 -0.208374 0.20745 0.978246 12.9999 15.1096)" fill="#FF8A00"/>
<rect width="10.001" height="10.0223" rx="2" transform="matrix(0.978049 -0.208374 0.20745 0.978246 12.9999 15.1096)" fill="url(#paint3_radial)"/>
<rect width="10.001" height="10.0223" rx="2" transform="matrix(0.978049 -0.208374 0.20745 0.978246 2 26.1351)" fill="#E4B81B"/>
<rect width="10.001" height="10.0223" rx="2" transform="matrix(0.978049 -0.208374 0.20745 0.978246 2 26.1351)" fill="url(#paint4_radial)"/>
<rect width="10.001" height="10.0223" rx="2" transform="matrix(0.978049 -0.208374 0.20745 0.978246 12.9999 26.1351)" fill="#6C9BD1"/>
<rect width="10.001" height="10.0223" rx="2" transform="matrix(0.978049 -0.208374 0.20745 0.978246 12.9999 26.1351)" fill="url(#paint5_radial)"/>
<rect width="10.001" height="10.0223" rx="2" transform="matrix(0.978049 -0.208374 0.20745 0.978246 23.9999 4.08395)" fill="#FF8A00"/>
<rect width="10.001" height="10.0223" rx="2" transform="matrix(0.978049 -0.208374 0.20745 0.978246 23.9999 4.08395)" fill="url(#paint6_radial)"/>
<rect width="10.001" height="10.0223" rx="2" transform="matrix(0.978049 -0.208374 0.20745 0.978246 23.9999 15.1096)" fill="#6C9BD1"/>
<rect width="10.001" height="10.0223" rx="2" transform="matrix(0.978049 -0.208374 0.20745 0.978246 23.9999 15.1096)" fill="url(#paint7_radial)"/>
<rect width="10.001" height="10.0223" rx="2" transform="matrix(0.978049 -0.208374 0.20745 0.978246 23.9999 26.1351)" fill="#BF4216"/>
<rect width="10.001" height="10.0223" rx="2" transform="matrix(0.978049 -0.208374 0.20745 0.978246 23.9999 26.1351)" fill="url(#paint8_radial)"/>
<defs>
<radialGradient id="paint0_radial" cx="0" cy="0" r="1" gradientUnits="userSpaceOnUse" gradientTransform="translate(5.0005 5.01113) rotate(90) scale(5.01113 5.0005)">
<stop stop-color="white" stop-opacity="0.3"/>
<stop offset="1" stop-color="white" stop-opacity="0"/>
</radialGradient>
<radialGradient id="paint1_radial" cx="0" cy="0" r="1" gradientUnits="userSpaceOnUse" gradientTransform="translate(5.0005 5.01113) rotate(90) scale(5.01113 5.0005)">
<stop stop-color="white" stop-opacity="0.3"/>
<stop offset="1" stop-color="white" stop-opacity="0"/>
</radialGradient>
<radialGradient id="paint2_radial" cx="0" cy="0" r="1" gradientUnits="userSpaceOnUse" gradientTransform="translate(5.0005 5.01113) rotate(90) scale(5.01113 5.0005)">
<stop stop-color="white" stop-opacity="0.3"/>
<stop offset="1" stop-color="white" stop-opacity="0"/>
</radialGradient>
<radialGradient id="paint3_radial" cx="0" cy="0" r="1" gradientUnits="userSpaceOnUse" gradientTransform="translate(5.0005 5.01113) rotate(90) scale(5.01113 5.0005)">
<stop stop-color="white" stop-opacity="0.3"/>
<stop offset="1" stop-color="white" stop-opacity="0"/>
</radialGradient>
<radialGradient id="paint4_radial" cx="0" cy="0" r="1" gradientUnits="userSpaceOnUse" gradientTransform="translate(5.0005 5.01113) rotate(90) scale(5.01113 5.0005)">
<stop stop-color="white" stop-opacity="0.3"/>
<stop offset="1" stop-color="white" stop-opacity="0"/>
</radialGradient>
<radialGradient id="paint5_radial" cx="0" cy="0" r="1" gradientUnits="userSpaceOnUse" gradientTransform="translate(5.0005 5.01113) rotate(90) scale(5.01113 5.0005)">
<stop stop-color="white" stop-opacity="0.3"/>
<stop offset="1" stop-color="white" stop-opacity="0"/>
</radialGradient>
<radialGradient id="paint6_radial" cx="0" cy="0" r="1" gradientUnits="userSpaceOnUse" gradientTransform="translate(5.0005 5.01113) rotate(90) scale(5.01113 5.0005)">
<stop stop-color="white" stop-opacity="0.3"/>
<stop offset="1" stop-color="white" stop-opacity="0"/>
</radialGradient>
<radialGradient id="paint7_radial" cx="0" cy="0" r="1" gradientUnits="userSpaceOnUse" gradientTransform="translate(5.0005 5.01113) rotate(90) scale(5.01113 5.0005)">
<stop stop-color="white" stop-opacity="0.3"/>
<stop offset="1" stop-color="white" stop-opacity="0"/>
</radialGradient>
<radialGradient id="paint8_radial" cx="0" cy="0" r="1" gradientUnits="userSpaceOnUse" gradientTransform="translate(5.0005 5.01113) rotate(90) scale(5.01113 5.0005)">
<stop stop-color="white" stop-opacity="0.3"/>
<stop offset="1" stop-color="white" stop-opacity="0"/>
</radialGradient>
</defs>
</svg>
